<svg xmlns="http://www.w3.org/2000/svg" xmlns:xlink="http://www.w3.org/1999/xlink" version="1.1" x="0px" y="0px" viewBox="0 0 100 100" enable-background="new 0 0 100 100" xml:space="preserve"><path d="M53.067,37.048c0.409,0.75,1.186,1.187,1.999,1.187c0.266,0,0.536-0.047,0.797-0.145  c13.375-5.007,19.165-12.53,20.19-13.987c0.723-1.028,0.476-2.447-0.552-3.17c-1.029-0.723-2.448-0.476-3.171,0.552  c-0.518,0.736-5.177,7.024-16.241,11.624c-5.906-10.524-12.097-18.884-12.818-19.848c-0.753-1.007-2.179-1.213-3.185-0.459  c-1.006,0.752-1.212,2.178-0.46,3.185C40.367,16.977,47.038,25.986,53.067,37.048z"></path><path d="M76.42,25.655c-0.619,0.836-6.426,8.323-19.408,13.617c-0.584,0.238-1.043,0.708-1.267,1.297  c-0.225,0.589-0.195,1.244,0.082,1.811c0.863,1.764,1.661,3.503,2.372,5.171c0.265,0.621,0.522,1.238,0.774,1.853  c0.39,0.951,1.367,1.525,2.389,1.394c11.744-1.474,23.37,0.869,24.657,1.142c0.159,0.034,0.317,0.05,0.473,0.05  c1.053,0,1.998-0.734,2.224-1.805c0.26-1.23-0.526-2.437-1.756-2.697c-1.301-0.276-12.568-2.547-24.437-1.397  c-0.046-0.108-0.092-0.216-0.138-0.324c-0.449-1.053-0.931-2.133-1.441-3.228C73.25,36.99,79.002,29.815,80.077,28.363  c0.748-1.01,0.536-2.435-0.474-3.183C78.593,24.434,77.168,24.645,76.42,25.655z"></path><path d="M50,5.057C25.187,5.057,5,25.218,5,50s20.187,44.943,45,44.943S95,74.782,95,50S74.813,5.057,50,5.057z M50,90.392  C27.697,90.392,9.551,72.272,9.551,50S27.697,9.608,50,9.608S90.449,27.728,90.449,50S72.303,90.392,50,90.392z"></path><path d="M53.25,52.539c0.448-0.144,0.9-0.281,1.355-0.408c0.635-0.178,1.162-0.624,1.443-1.221c0.281-0.597,0.289-1.287,0.022-1.891  c-0.891-2.016-1.906-4.136-3.014-6.301c-0.5-0.977-1.626-1.461-2.678-1.143c-15.838,4.733-31.322,5.101-35.69,5.101  c-0.561,0-0.941-0.006-1.117-0.009c-1.251-0.049-2.283,0.958-2.321,2.205c-0.012,0.393-0.02,0.787-0.02,1.183  c0,2.864,0.323,5.692,0.94,8.443c0.002,0.012,0.005,0.023,0.007,0.035c0.612,2.719,1.519,5.358,2.699,7.878  c0.002,0.004,0.004,0.008,0.006,0.013c1.61,3.436,3.724,6.651,6.316,9.525c0.434,0.481,1.049,0.751,1.689,0.751  c0.077,0,0.155-0.004,0.233-0.012c0.722-0.074,1.365-0.488,1.732-1.115C25.261,74.875,35.059,58.412,53.25,52.539z M50.85,48.544  c-4.162,1.443-7.89,3.366-11.188,5.503c-0.109-0.236-0.254-0.46-0.449-0.655c-0.889-0.889-2.329-0.889-3.218,0L21.086,68.301  c-0.475-0.748-0.919-1.513-1.332-2.292l13.891-13.891c0.645-0.644,0.815-1.578,0.524-2.382c4.864-0.708,10.226-1.746,15.678-3.27  C50.193,47.167,50.528,47.86,50.85,48.544z M16.921,58.782l8.002-8.002c1.26-0.102,2.6-0.227,4.004-0.38L17.78,61.546  C17.454,60.638,17.168,59.716,16.921,58.782z M18.097,51.169l-2.153,2.153c-0.067-0.697-0.119-1.397-0.143-2.101  C16.449,51.213,17.221,51.197,18.097,51.169z"></path><path d="M14.248,44.867c0.133,0.002,0.351,0.003,0.648,0.003c0,0,0,0,0.001,0c3.909,0,17.888-0.326,33.702-4.52  c0.681-0.181,1.239-0.666,1.513-1.315c0.274-0.649,0.232-1.388-0.114-2.001c-6.031-10.706-12.45-19.623-13.675-21.302  c-0.644-0.881-1.822-1.182-2.808-0.717c-8.743,4.119-15.612,11.394-19.292,20.157c-0.002,0.005-0.004,0.01-0.006,0.015  c-0.934,2.227-1.666,4.548-2.166,6.939c-0.139,0.666,0.026,1.359,0.452,1.889C12.928,44.545,13.568,44.858,14.248,44.867z   M33.773,19.983c2.106,2.969,6.418,9.239,10.774,16.696c-7.136,1.706-13.742,2.615-18.991,3.1c0.293-0.805,0.123-1.741-0.523-2.387  c-0.889-0.888-2.329-0.888-3.218,0l-2.834,2.834c-0.64,0.027-1.241,0.048-1.771,0.062c0.302-1.006,0.655-1.994,1.048-2.963  l3.887-3.887c0.881-0.881,0.886-2.304,0.019-3.194C25.181,26.029,29.139,22.488,33.773,19.983z"></path><path d="M86.716,53.671c-1.191-0.376-7.55-2.25-15.819-2.25c-2.725,0-5.402,0.207-7.956,0.615c-0.671,0.107-1.258,0.508-1.603,1.094  c-0.344,0.586-0.409,1.294-0.176,1.932c4.729,12.977,6.647,23.589,6.984,25.584c0.129,0.763,0.636,1.408,1.348,1.713  c0.288,0.123,0.593,0.184,0.896,0.184c0.447,0,0.892-0.132,1.274-0.389c8.491-5.734,14.391-14.643,16.361-24.598  c0.001-0.004,0.002-0.008,0.002-0.013c0.088-0.446,0.179-0.892,0.251-1.342C88.457,55.087,87.793,54.01,86.716,53.671z   M70.897,55.972c4.795,0,8.925,0.698,11.539,1.281L70.334,69.355c-0.234-0.913-0.485-1.867-0.76-2.865l3.859-3.859  c0.889-0.888,0.889-2.329,0-3.218c-0.889-0.889-2.329-0.889-3.218,0l-2.093,2.093c-0.525-1.707-1.1-3.485-1.734-5.324  C67.862,56.042,69.37,55.972,70.897,55.972z M71.94,76.254c-0.109-0.523-0.23-1.093-0.365-1.704l8.791-8.791  C78.287,69.75,75.43,73.332,71.94,76.254z"></path><path d="M65.69,79.029c-0.002-0.009-0.004-0.017-0.006-0.026c-1.106-5.228-3.283-13.972-7.091-23.854  c-0.439-1.14-1.701-1.73-2.856-1.336l-0.255,0.087C34.141,61.325,26.372,76.14,25.557,77.806c-0.474,0.967-0.204,2.134,0.645,2.797  C33.067,85.95,41.297,88.776,50,88.776c5.249,0,10.345-1.036,15.146-3.078c0.969-0.412,1.529-1.436,1.353-2.475  C66.354,82.375,66.093,80.935,65.69,79.029z M51.898,84.167l8.386-8.386c0.259,1.062,0.484,2.04,0.683,2.941l-4.98,4.98  C54.641,83.94,53.276,84.092,51.898,84.167z M42.585,83.42l15.549-15.548c0.291,0.968,0.56,1.902,0.814,2.81l-13.27,13.27  C44.635,83.821,43.604,83.644,42.585,83.42z M56.58,62.989L37.643,81.926c-0.855-0.332-1.698-0.697-2.525-1.099l18.086-18.086  c0.858-0.858,0.879-2.227,0.079-3.121c0.605-0.255,1.218-0.507,1.85-0.749C55.65,60.276,56.13,61.649,56.58,62.989z M46.461,63.047  L31.033,78.475c-0.157-0.105-0.316-0.207-0.472-0.315C32.442,75.068,37.215,68.52,46.461,63.047z"></path></svg>