<svg xmlns="http://www.w3.org/2000/svg" xmlns:xlink="http://www.w3.org/1999/xlink" version="1.1" x="0px" y="0px" viewBox="0 0 100 100" enable-background="new 0 0 100 100" xml:space="preserve"><path d="M92.857,46.143h-8.95c-0.085-8.313-6.593-13.992-13.135-15.223c-3.844-0.724-7.713,0.041-10.897,2.153  c-2.944,1.952-5.274,5.023-6.825,8.968c-9.655-6.22-13.544-17.725-14.318-23.897c-0.111-0.883-0.756-1.606-1.621-1.816  c-0.866-0.211-1.77,0.138-2.273,0.872c-2.687,3.923-3.596,8.093-3.631,11.687c-0.171-0.049-0.349-0.076-0.533-0.082  c-0.895-0.015-1.716,0.516-2.048,1.352c-1.215,3.062-1.665,7.081-1.134,10.94c-0.236-0.129-0.499-0.214-0.778-0.246  c-0.966-0.112-1.886,0.442-2.241,1.347c-2.735,6.98,0.887,17.49,7.048,20.447c1.066,0.511,2.347,0.062,2.859-1.004  c0.512-1.067,0.063-2.347-1.004-2.86c-2.884-1.384-5.083-5.933-5.46-10.168c1.399,1.143,3.068,2.061,4.755,2.513  c0.933,0.251,1.918-0.154,2.406-0.989c0.487-0.834,0.356-1.891-0.32-2.581c-2.504-2.555-3.452-7.129-3.143-11.21  c0.625,0.552,1.356,1.017,2.199,1.296c0.793,0.263,1.667,0.041,2.238-0.569c0.571-0.609,0.736-1.496,0.422-2.27  c-0.754-1.859-1.468-5.593-0.526-9.649c2.379,7.525,7.61,16.957,17.317,21.954c0.572,0.294,1.245,0.317,1.834,0.061  c0.589-0.256,1.033-0.763,1.208-1.381c1.724-6.071,6.22-12.059,13.674-10.657c5.127,0.964,10.228,5.622,9.584,12.366  c-0.007,0.075-0.017,0.15-0.027,0.224c-0.015,0.118-0.031,0.236-0.042,0.357c-0.058,0.602,0.14,1.2,0.546,1.647  c0.406,0.447,0.982,0.703,1.587,0.703h2.476l-4.792,2.495c-0.506,0.264-0.886,0.719-1.056,1.264  c-0.378,1.213-0.825,2.395-1.338,3.544l-1.229-1.229c-0.837-0.837-2.194-0.837-3.031,0c-0.837,0.837-0.837,2.194,0,3.03l2.142,2.142  c-0.434,0.693-0.895,1.37-1.382,2.031l-3.958-3.958c-0.837-0.837-2.194-0.837-3.031,0c-0.837,0.837-0.837,2.194,0,3.03l4.223,4.223  c-0.553,0.578-1.131,1.138-1.73,1.683l-5.691-5.691c-0.837-0.837-2.194-0.837-3.031,0c-0.837,0.837-0.837,2.194,0,3.03l5.363,5.363  c-0.662,0.473-1.345,0.928-2.048,1.366l-6.514-6.514c-0.837-0.837-2.193-0.837-3.03,0c-0.837,0.837-0.837,2.194,0,3.03l5.634,5.634  c-0.769,0.37-1.55,0.727-2.356,1.058l-6.477-6.477c-0.837-0.837-2.194-0.837-3.031,0c-0.837,0.837-0.837,2.194,0,3.03l5.031,5.031  c-0.895,0.268-1.793,0.506-2.695,0.718l-5.534-5.534c-0.837-0.837-2.193-0.837-3.031,0c-0.837,0.837-0.837,2.194,0,3.03l3.406,3.406  c-1.05,0.121-2.104,0.205-3.161,0.252l-3.443-3.443c-0.837-0.837-2.193-0.837-3.03,0c-0.837,0.837-0.837,2.194,0,3.03l0.265,0.265  c-1.523-0.14-3.051-0.35-4.583-0.642c-0.45-0.084-0.895-0.171-1.341-0.27c-7.408-1.633-13.292-4.789-16.854-7.57  c1.974,0.057,4.08-0.196,6.046-1.036c1.088-0.465,1.593-1.724,1.128-2.812c-0.465-1.089-1.725-1.595-2.813-1.128  c-3.186,1.362-7.226,0.456-9.352-0.207c-0.796-0.248-1.66-0.013-2.221,0.602C5,66.817,4.845,67.701,5.164,68.469  c1.952,4.702,11.507,11.418,23.532,14.07c0.487,0.109,0.982,0.206,1.475,0.298c3.141,0.598,6.311,0.895,9.472,0.895  c0.366,0,0.73-0.019,1.096-0.027c0.051,0.004,0.101,0.015,0.151,0.015c0.085,0,0.169-0.014,0.254-0.024  c2.868-0.085,5.724-0.409,8.541-0.981c0.1-0.014,0.198-0.037,0.296-0.066c2.528-0.529,5.022-1.257,7.464-2.175  c0.045-0.016,0.089-0.031,0.132-0.05c0.393-0.149,0.788-0.288,1.178-0.447c1.948-0.795,3.805-1.715,5.573-2.735  c0.009-0.006,0.018-0.009,0.027-0.015c1.985-1.147,3.851-2.425,5.58-3.827c0.133-0.084,0.26-0.18,0.376-0.296  c0.011-0.011,0.018-0.024,0.029-0.035c1.69-1.405,3.244-2.927,4.653-4.55c0.037-0.032,0.078-0.057,0.114-0.093  c0.131-0.131,0.234-0.277,0.324-0.429c1.441-1.719,2.719-3.545,3.818-5.465c0.028-0.042,0.05-0.086,0.076-0.129  c1.1-1.941,2.026-3.971,2.743-6.082l11.779-6.135c0.875-0.456,1.326-1.451,1.092-2.41S93.844,46.143,92.857,46.143z"></path></svg>